<svg id="svg" version="1.1" xmlns="http://www.w3.org/2000/svg" xmlns:xlink="http://www.w3.org/1999/xlink" width="400" height="126.7080745341615" viewBox="0, 0, 400,126.7080745341615"><g id="svgg"><path id="path0" d="M79.917 2.574 C 76.872 3.547,62.673 3.859,45.549 3.329 C 27.370 2.766,18.145 6.093,13.495 14.886 C 7.380 26.448,19.052 34.683,30.662 27.000 C 36.384 23.214,36.018 19.018,30.208 21.789 C 21.765 25.815,14.366 21.114,19.515 14.995 C 22.347 11.629,25.749 10.758,38.302 10.183 C 49.874 9.654,49.971 9.697,46.375 13.793 C 43.028 17.605,40.606 22.668,36.916 33.564 C 30.872 51.412,26.462 56.892,18.848 56.017 C 15.440 55.626,14.798 55.798,13.982 57.324 C 12.641 59.828,14.960 61.288,20.241 61.265 C 31.445 61.217,39.103 52.255,46.411 30.642 C 51.591 15.318,54.521 11.211,60.740 10.550 L 64.751 10.124 61.866 13.137 C 56.010 19.253,47.894 44.825,49.254 52.875 C 50.409 59.714,60.135 64.584,63.486 60.001 C 65.106 57.786,64.906 57.374,61.700 56.316 C 55.824 54.376,55.024 49.968,58.316 37.681 C 63.684 17.650,67.510 11.427,75.376 9.935 C 81.387 8.795,84.886 6.650,84.886 4.106 C 84.886 1.816,83.564 1.409,79.917 2.574 M341.402 23.785 C 340.829 23.991,337.928 28.943,334.954 34.791 C 326.571 51.277,319.355 57.763,315.011 52.713 C 310.866 47.894,306.639 54.042,310.619 59.102 C 313.974 63.367,319.989 61.723,327.695 54.435 L 332.091 50.277 332.091 54.824 C 332.091 64.216,341.659 65.157,347.494 56.339 C 350.460 51.857,348.395 49.171,344.928 53.002 C 344.103 53.913,342.562 54.658,341.502 54.658 C 338.133 54.658,338.227 51.497,341.940 39.931 C 346.263 26.467,346.117 22.095,341.402 23.785 M214.847 28.626 C 208.325 43.376,205.027 59.218,208.226 60.434 C 211.510 61.683,211.662 61.601,213.132 57.764 C 217.714 45.810,230.588 31.161,234.014 34.004 C 235.767 35.459,235.499 37.733,232.252 48.905 C 229.159 59.547,229.204 60.139,233.152 60.895 C 235.575 61.359,235.687 61.215,240.882 50.990 C 247.095 38.761,251.689 33.681,256.143 34.112 C 259.683 34.454,259.650 37.864,256.027 46.102 C 251.649 56.056,252.769 60.455,259.684 60.455 C 265.218 60.455,273.171 52.951,270.741 50.023 C 269.862 48.964,269.505 49.011,267.992 50.387 C 260.750 56.967,259.020 53.265,264.182 42.236 C 273.557 22.207,258.522 18.465,244.643 37.373 C 241.035 42.288,240.588 42.179,242.226 36.783 C 247.162 20.511,234.333 21.119,221.089 37.785 C 217.114 42.787,216.176 43.610,216.603 41.723 C 217.985 35.620,218.824 32.820,220.308 29.357 L 221.911 25.618 219.804 24.817 C 218.646 24.377,217.515 24.017,217.292 24.017 C 217.069 24.017,215.969 26.091,214.847 28.626 M111.419 33.287 C 106.919 42.486,98.784 52.174,95.558 52.174 C 90.049 52.174,90.404 44.596,96.440 33.313 L 99.220 28.118 96.856 26.895 C 93.545 25.183,93.806 24.961,90.297 32.505 C 78.085 58.761,84.573 71.506,101.226 53.974 L 105.689 49.275 105.640 53.535 C 105.520 63.814,116.900 63.988,122.175 53.788 C 123.756 50.730,121.693 49.782,118.655 52.172 C 115.735 54.469,113.606 54.297,112.957 51.711 C 112.440 49.651,112.916 48.108,118.744 32.934 L 120.886 27.359 118.455 26.102 C 117.118 25.410,115.913 24.854,115.776 24.866 C 115.640 24.878,113.679 28.667,111.419 33.287 M389.188 30.330 C 384.061 41.757,375.581 52.174,371.406 52.174 C 366.152 52.174,366.760 44.780,373.031 32.404 C 374.261 29.978,375.148 27.919,375.004 27.829 C 370.629 25.097,369.860 25.471,366.661 31.884 C 353.760 57.742,362.112 72.370,378.707 52.982 L 381.781 49.391 381.781 53.497 C 381.781 63.150,392.016 64.314,397.520 55.287 C 400.168 50.944,398.263 48.748,394.729 52.069 C 387.850 58.531,387.260 51.880,393.378 36.845 C 397.337 27.115,397.295 27.686,394.183 26.076 L 391.678 24.781 389.188 30.330 M151.870 26.459 C 129.573 31.782,119.124 61.284,139.536 61.284 C 147.279 61.284,158.857 52.356,155.486 48.984 C 154.090 47.589,153.599 47.746,149.426 50.932 C 137.872 59.751,132.156 46.333,143.428 36.848 C 147.313 33.579,152.060 31.430,156.578 30.895 C 160.407 30.441,160.663 30.263,160.663 28.042 C 160.663 25.465,158.022 24.990,151.870 26.459 M296.351 26.827 C 281.009 32.308,271.031 48.302,277.139 57.624 C 279.903 61.842,288.544 62.600,295.329 59.219 C 305.319 54.241,306.969 47.540,297.050 52.233 C 290.914 55.135,289.933 55.196,286.957 52.854 L 284.663 51.050 291.460 47.911 C 304.110 42.070,310.703 35.216,309.247 29.418 C 308.332 25.769,302.559 24.609,296.351 26.827 M185.093 27.662 C 173.576 31.314,163.562 40.861,161.474 50.179 C 158.615 62.936,170.923 65.637,182.410 54.773 L 186.749 50.669 186.466 54.232 C 185.800 62.602,193.214 64.209,200.621 57.301 C 204.724 53.474,202.917 50.119,198.442 53.254 C 193.071 57.018,192.117 52.534,196.274 43.063 C 198.764 37.389,198.813 37.074,197.370 35.980 C 195.014 34.195,194.402 34.547,191.304 39.465 C 183.688 51.558,171.801 57.870,170.218 50.662 C 168.514 42.902,179.262 33.359,193.168 30.285 C 194.716 29.943,195.445 29.257,195.445 28.142 C 195.445 26.164,190.536 25.936,185.093 27.662 M301.405 32.659 C 303.371 35.028,298.032 40.681,290.204 44.520 C 285.088 47.029,284.065 46.627,285.879 42.823 C 289.750 34.706,298.403 29.041,301.405 32.659 M240.907 89.280 C 237.610 90.927,235.379 94.852,236.616 96.829 C 238.347 99.596,246.791 98.429,246.791 95.424 C 246.791 94.769,246.325 94.408,245.756 94.622 C 242.202 95.957,241.153 96.013,240.243 94.917 C 239.454 93.967,239.632 93.469,241.139 92.414 C 243.192 90.976,250.932 90.574,250.932 91.905 C 250.932 93.689,247.647 97.942,244.458 100.287 C 240.513 103.189,237.681 107.398,237.681 110.361 C 237.681 112.409,239.592 113.910,241.052 113.007 C 241.458 112.757,244.053 112.439,246.819 112.302 C 252.211 112.034,257.014 109.469,260.161 105.176 C 264.445 99.332,262.024 93.749,255.649 94.768 C 251.052 95.503,253.520 92.400,258.232 91.519 C 261.191 90.966,263.354 89.783,263.354 88.718 C 263.353 87.394,243.700 87.885,240.907 89.280 M288.522 100.440 C 285.383 106.714,283.379 108.653,280.653 108.054 C 278.197 107.515,277.152 108.449,277.933 110.484 C 278.570 112.144,282.272 112.160,284.452 110.511 C 285.942 109.386,286.214 109.440,287.481 111.120 C 289.030 113.173,292.696 112.338,293.707 109.702 C 294.387 107.932,293.455 107.219,292.019 108.411 C 289.986 110.098,289.799 108.084,291.523 103.073 C 294.246 95.156,292.106 93.278,288.522 100.440 M319.853 96.669 C 319.145 96.922,318.958 97.918,319.287 99.673 C 319.646 101.588,318.757 105.198,316.002 113.008 C 313.146 121.109,312.476 123.877,313.256 124.372 C 314.940 125.442,315.138 125.226,316.232 121.118 C 319.428 109.114,329.607 95.320,329.607 102.994 C 329.607 106.047,326.578 109.317,323.749 109.317 C 322.147 109.317,321.325 109.738,321.325 110.559 C 321.325 115.018,331.177 110.041,332.943 104.691 C 335.400 97.244,329.203 94.579,324.021 100.854 L 322.161 103.106 322.157 100.049 C 322.153 96.840,321.608 96.040,319.853 96.669 M337.031 100.690 C 333.230 109.557,337.091 114.324,343.623 108.828 L 346.171 106.684 345.462 108.621 C 345.072 109.687,342.889 111.629,340.611 112.938 C 334.434 116.485,332.042 121.572,335.109 124.638 C 338.328 127.857,344.398 123.166,346.222 116.050 C 346.921 113.324,347.843 111.645,348.809 111.338 C 349.635 111.076,350.311 110.474,350.311 110.001 C 350.311 109.527,349.747 109.356,349.058 109.620 C 347.747 110.123,347.930 108.208,349.634 103.592 C 351.092 99.642,348.897 99.780,345.175 103.872 C 340.001 109.561,337.104 108.154,339.953 101.335 C 340.633 99.707,340.984 98.042,340.732 97.635 C 339.766 96.071,338.597 97.035,337.031 100.690 M378.180 99.612 C 376.725 103.082,372.843 107.660,371.355 107.660 C 369.750 107.660,369.919 105.431,371.845 101.187 L 373.468 97.611 371.640 97.874 C 369.468 98.186,366.989 103.869,366.919 108.696 C 366.865 112.383,369.294 112.979,372.880 110.158 C 374.963 108.519,374.970 108.519,375.399 110.158 C 375.961 112.310,379.387 112.332,381.319 110.197 C 383.047 108.287,382.303 106.196,380.445 107.738 C 378.382 109.450,378.249 107.927,380.043 103.132 C 382.341 96.990,380.631 93.761,378.180 99.612 M269.682 99.294 C 265.063 102.340,262.713 108.344,265.176 110.807 C 267.565 113.196,275.776 111.043,275.776 108.028 C 275.776 106.610,274.804 106.480,273.553 107.731 C 273.059 108.225,271.773 108.493,270.696 108.328 C 268.859 108.046,268.918 107.932,271.636 106.505 C 278.834 102.724,280.841 97.718,275.155 97.728 C 273.447 97.731,270.984 98.436,269.682 99.294 M305.176 98.896 C 298.240 101.992,294.803 111.105,300.368 111.643 C 301.824 111.784,303.921 111.305,305.030 110.578 C 306.833 109.397,307.098 109.392,307.534 110.529 C 308.451 112.917,314.700 111.459,314.700 108.858 C 314.700 107.961,314.141 107.769,312.629 108.149 C 310.201 108.758,310.120 108.427,311.872 105.040 C 314.235 100.470,311.904 100.215,308.027 104.619 C 304.521 108.603,301.449 109.708,301.449 106.987 C 301.449 105.006,305.374 101.313,308.719 100.147 C 310.187 99.635,311.387 98.881,311.387 98.470 C 311.387 97.384,308.051 97.613,305.176 98.896 M357.240 99.311 C 350.239 103.580,349.901 111.801,356.725 111.801 C 360.038 111.801,364.371 108.139,362.854 106.622 C 362.193 105.961,361.503 106.111,360.330 107.173 C 359.442 107.976,358.040 108.504,357.214 108.345 C 353.256 107.583,356.641 101.686,361.949 100.096 C 363.747 99.557,365.217 98.803,365.217 98.420 C 365.217 97.120,359.849 97.720,357.240 99.311 M1.656 100.207 C 1.656 101.855,2.208 101.863,107.660 101.863 C 213.112 101.863,213.665 101.855,213.665 100.207 C 213.665 98.559,213.112 98.551,107.660 98.551 C 2.208 98.551,1.656 98.559,1.656 100.207 M257.299 99.901 C 258.575 103.227,251.903 110.145,247.419 110.145 L 245.251 110.145 247.380 106.211 C 251.324 98.922,251.659 98.551,254.289 98.551 C 255.829 98.551,256.979 99.067,257.299 99.901 M274.948 100.979 C 274.948 102.063,270.140 105.368,269.078 105.014 C 267.872 104.611,272.076 100.207,273.666 100.207 C 274.371 100.207,274.948 100.554,274.948 100.979 M245.462 103.727 C 243.726 106.727,241.589 109.360,241.202 108.973 C 240.754 108.525,244.875 102.692,245.640 102.692 C 245.871 102.692,245.791 103.157,245.462 103.727 M343.255 116.563 C 341.259 121.405,337.888 123.111,337.888 119.279 C 337.888 117.772,342.240 113.458,343.760 113.458 C 344.187 113.458,343.960 114.855,343.255 116.563 " stroke="none" fill="#000000" fill-rule="evenodd"></path></g></svg>