<svg id="svg" 
  xmlns="http://www.w3.org/2000/svg" 
  xmlns:xlink="http://www.w3.org/1999/xlink" viewBox="0, 0, 400,110">
  <g id="svgg">
    <path id="path0" d="M63.158 2.572 C 61.039 3.023,52.227 3.139,42.105 2.850 C 19.085 2.191,11.180 4.203,5.898 12.063 C -1.307 22.783,10.599 31.692,21.777 23.946 C 27.009 20.320,25.414 17.016,19.737 19.723 C 12.682 23.088,6.350 18.011,11.538 13.151 C 14.487 10.388,17.660 9.599,27.733 9.120 C 37.909 8.637,38.637 8.938,35.172 12.193 C 31.913 15.255,30.329 18.343,26.887 28.340 C 20.099 48.060,16.908 51.835,8.756 49.789 C 7.044 49.359,6.413 49.620,5.632 51.079 C 4.264 53.636,6.414 55.061,11.640 55.061 C 21.951 55.061,28.481 47.694,35.110 28.581 C 40.123 14.127,43.034 9.717,47.561 9.717 L 50.505 9.717 48.373 11.943 C 42.395 18.186,35.306 44.895,38.151 50.458 C 41.045 56.116,51.822 56.983,51.822 51.558 C 51.822 51.354,50.820 50.938,49.595 50.632 C 43.905 49.212,43.218 45.047,46.584 32.389 C 50.739 16.765,54.980 10.104,61.538 8.900 C 66.634 7.964,69.924 5.884,70.299 3.360 C 70.593 1.386,69.368 1.251,63.158 2.572 M79.815 11.799 C 77.975 13.639,78.157 18.360,80.109 19.405 C 84.038 21.508,87.449 19.438,87.449 14.950 C 87.449 10.878,82.697 8.916,79.815 11.799 M330.017 11.799 C 328.178 13.639,328.360 18.360,330.311 19.405 C 334.241 21.508,337.652 19.438,337.652 14.950 C 337.652 10.878,332.900 8.916,330.017 11.799 M389.924 12.326 C 387.341 16.014,388.596 19.261,392.873 19.955 C 396.036 20.469,398.381 18.328,398.381 14.925 C 398.381 10.858,392.269 8.979,389.924 12.326 M171.488 21.660 C 170.811 22.439,168.529 26.451,166.418 30.575 C 159.411 44.265,149.729 52.315,147.754 46.093 C 147.034 43.825,143.320 46.373,143.320 49.134 C 143.320 56.527,150.871 56.318,158.907 48.703 L 161.943 45.825 161.943 49.471 C 161.943 57.607,169.210 57.440,177.935 49.104 L 181.377 45.817 181.377 48.730 C 181.377 55.917,188.310 57.643,194.298 51.947 C 199.242 47.244,198.041 43.152,192.845 46.994 C 187.395 51.023,187.365 46.643,192.754 33.831 C 196.985 23.773,197.262 22.201,195.049 20.808 C 192.695 19.326,191.316 20.820,186.517 30.057 C 179.639 43.296,173.777 48.965,170.428 45.616 C 168.560 43.748,169.267 40.821,173.782 31.717 C 177.003 25.224,177.404 23.887,176.636 22.203 C 175.589 19.903,173.232 19.655,171.488 21.660 M347.880 23.279 C 345.156 28.557,339.092 52.722,340.211 53.841 C 342.783 56.413,346.204 55.065,348.685 50.501 L 351.217 45.847 352.490 48.309 C 357.248 57.511,367.076 57.958,371.770 49.187 C 373.345 46.244,370.743 44.734,367.758 46.859 C 363.687 49.758,359.795 47.453,357.503 40.785 C 355.992 36.390,360.385 30.555,366.058 29.420 C 368.393 28.953,369.888 22.672,367.664 22.672 C 363.867 22.672,356.878 27.624,352.968 33.083 C 351.224 35.518,349.805 37.360,349.814 37.176 C 349.823 36.993,350.690 33.494,351.741 29.401 C 353.369 23.061,353.476 21.894,352.468 21.507 C 350.176 20.627,349.018 21.075,347.880 23.279 M127.125 22.065 C 127.125 22.176,125.852 25.830,124.295 30.184 C 120.456 40.925,119.343 48.259,120.963 52.137 C 123.751 58.809,137.072 54.353,141.779 45.174 C 145.838 37.260,141.475 33.494,132.086 36.806 C 128.154 38.193,128.226 38.543,130.690 30.070 L 132.634 23.381 130.637 22.622 C 128.718 21.892,127.126 21.640,127.125 22.065 M251.488 24.899 C 250.401 26.569,248.348 30.566,246.925 33.782 C 245.503 36.998,243.745 39.791,243.020 39.988 C 242.294 40.186,239.787 40.812,237.449 41.379 C 233.234 42.403,232.334 43.540,233.851 45.928 C 234.335 46.689,235.168 46.704,237.482 45.994 C 241.426 44.784,241.500 44.952,239.643 50.917 C 237.388 58.164,237.506 58.933,240.979 59.584 C 244.182 60.185,245.310 59.280,245.332 56.090 C 245.339 55.097,246.114 51.941,247.054 49.076 C 248.916 43.405,249.555 42.946,255.619 42.926 L 259.011 42.915 257.787 46.508 C 255.816 52.291,256.459 54.604,260.121 54.907 C 262.653 55.117,263.158 54.903,263.158 53.620 C 263.158 50.352,266.378 39.743,269.603 32.389 C 271.458 28.158,273.184 24.214,273.439 23.625 C 273.783 22.830,273.195 22.621,271.162 22.815 C 268.580 23.062,268.210 23.507,264.777 30.516 L 261.134 37.956 256.423 38.006 C 250.924 38.065,250.938 38.218,255.589 28.934 L 258.334 23.455 256.240 22.658 C 253.445 21.596,253.723 21.465,251.488 24.899 M292.799 23.644 C 292.128 24.668,290.092 28.684,288.272 32.567 C 284.714 40.163,285.347 39.661,276.713 41.745 C 273.994 42.402,273.626 42.922,274.235 45.249 C 274.507 46.291,275.151 46.885,275.757 46.652 C 276.335 46.430,278.088 46.009,279.653 45.715 L 282.497 45.181 281.030 49.109 C 278.398 56.156,278.220 58.834,280.346 59.404 C 284.512 60.520,285.830 60.064,285.830 57.507 C 285.830 52.925,289.163 44.459,291.284 43.652 C 294.889 42.281,299.849 42.706,299.220 44.332 C 296.225 52.073,296.819 55.023,301.380 55.048 C 303.286 55.059,303.635 54.666,304.069 52.024 C 305.015 46.267,307.843 37.633,311.002 30.860 C 314.834 22.644,314.843 22.505,311.538 22.823 C 309.090 23.059,308.653 23.598,305.263 30.564 L 301.619 38.051 296.984 38.054 C 291.640 38.057,291.666 38.441,296.373 29.117 C 298.964 23.983,298.902 23.256,295.794 22.318 C 294.471 21.919,293.706 22.257,292.799 23.644 M73.403 28.947 C 65.781 44.201,65.537 55.061,72.816 55.061 C 78.025 55.061,86.388 47.175,83.860 44.647 C 82.835 43.622,82.318 43.797,79.777 46.028 C 72.584 52.343,72.243 45.513,78.987 30.212 L 80.839 26.010 78.909 24.746 C 76.250 23.004,76.448 22.853,73.403 28.947 M104.681 25.865 C 86.670 34.386,83.129 55.988,99.918 54.919 C 105.839 54.542,110.759 51.856,113.359 47.581 C 115.737 43.671,112.838 41.085,109.818 44.422 C 107.975 46.459,102.398 48.900,100.900 48.325 C 91.717 44.801,102.398 29.274,115.035 27.778 C 118.558 27.360,119.028 27.080,119.028 25.393 C 119.028 22.407,111.465 22.656,104.681 25.865 M217.948 25.264 C 200.540 33.701,196.342 55.061,212.092 55.061 C 220.190 55.061,230.497 48.773,227.428 45.705 C 226.320 44.596,225.822 44.680,222.610 46.516 C 218.563 48.829,214.461 49.183,212.939 47.349 C 211.639 45.782,211.509 45.889,219.306 42.119 C 230.457 36.726,236.389 28.616,232.227 24.453 C 230.616 22.843,221.925 23.336,217.948 25.264 M323.605 28.947 C 315.984 44.201,315.740 55.061,323.019 55.061 C 328.227 55.061,336.590 47.175,334.063 44.647 C 333.038 43.622,332.521 43.797,329.979 46.028 C 322.786 52.343,322.445 45.513,329.189 30.212 L 331.041 26.010 329.112 24.746 C 326.453 23.004,326.651 22.853,323.605 28.947 M383.183 30.567 C 376.023 45.845,376.156 55.061,383.536 55.061 C 388.765 55.061,396.684 47.349,394.104 44.770 C 392.916 43.581,392.569 43.683,389.927 46.003 C 383.746 51.429,383.017 46.348,388.148 33.603 L 391.082 26.316 389.378 24.899 C 386.864 22.807,386.786 22.879,383.183 30.567 M225.748 30.437 C 226.046 32.522,220.937 37.347,215.777 39.854 C 211.736 41.817,210.748 41.509,212.182 38.733 C 216.377 30.611,225.018 25.327,225.748 30.437 M135.984 41.642 C 138.290 44.421,131.061 51.651,128.282 49.344 C 125.873 47.345,126.820 42.240,129.757 41.392 C 133.577 40.289,134.905 40.342,135.984 41.642 M276.113 75.889 C 271.749 77.437,269.626 83.281,272.808 84.985 C 274.827 86.065,278.916 85.225,280.578 83.388 C 282.286 81.501,280.920 80.661,278.176 81.911 C 275.417 83.168,273.775 81.806,275.714 79.867 C 276.580 79.002,278.413 78.543,281.002 78.543 L 284.966 78.543 283.209 81.579 C 282.242 83.249,280.888 84.943,280.199 85.343 C 274.523 88.639,269.970 96.999,273.180 98.231 C 275.346 99.062,286.003 97.191,288.740 95.500 C 296.727 90.563,297.911 81.781,290.589 81.781 C 288.862 81.781,287.449 81.490,287.449 81.134 C 287.449 79.867,289.422 78.543,291.308 78.543 C 293.464 78.543,296.356 77.206,296.356 76.210 C 296.356 75.488,278.062 75.198,276.113 75.889 M394.625 79.757 C 393.983 81.429,394.853 83.401,396.232 83.401 C 398.228 83.401,399.547 81.163,398.381 79.757 C 397.826 79.089,396.859 78.543,396.232 78.543 C 395.604 78.543,394.881 79.089,394.625 79.757 M318.714 86.655 C 316.509 91.653,313.428 94.991,312.065 93.860 C 310.419 92.494,308.546 93.516,309.064 95.497 C 309.592 97.514,312.961 97.760,315.519 95.969 C 317.077 94.877,317.266 94.913,317.648 96.373 C 318.151 98.296,320.428 98.444,322.897 96.715 C 325.449 94.927,325.302 92.790,322.672 93.450 C 320.285 94.049,320.327 94.231,321.862 89.879 C 324.288 83.004,321.558 80.210,318.714 86.655 M346.932 85.685 C 347.285 87.294,346.363 90.988,343.815 98.171 C 340.688 106.986,340.371 108.440,341.488 108.869 C 343.218 109.533,343.582 109.003,345.782 102.632 L 347.668 97.166 351.053 97.166 C 356.603 97.166,360.814 92.445,360.184 86.929 C 359.829 83.827,355.450 83.183,352.643 85.820 L 350.807 87.544 350.287 85.473 C 349.497 82.327,346.240 82.534,346.932 85.685 M363.534 86.697 C 359.965 93.692,364.140 99.749,369.307 95.073 C 370.600 93.902,370.850 93.873,370.850 94.893 C 370.850 95.563,369.370 96.778,367.561 97.594 C 360.561 100.750,357.896 107.681,362.962 109.551 C 366.658 110.914,370.196 107.805,372.082 101.537 C 373.313 97.444,376.574 94.482,377.752 96.387 C 379.258 98.824,387.854 95.826,387.854 92.863 C 387.854 91.961,385.018 92.229,384.022 93.225 C 383.021 94.226,380.567 93.637,380.567 92.395 C 380.567 90.732,384.785 86.731,387.066 86.230 C 390.208 85.540,390.167 84.211,387.004 84.211 C 382.132 84.211,376.518 88.821,376.518 92.822 C 376.518 94.041,376.045 94.737,375.217 94.737 C 374.304 94.737,374.083 94.314,374.476 93.320 C 377.127 86.617,375.132 84.671,370.948 89.879 C 366.747 95.105,364.026 92.790,367.186 86.678 C 368.251 84.620,368.244 84.316,367.120 83.885 C 365.282 83.179,365.359 83.119,363.534 86.697 M301.456 85.797 C 297.309 88.326,295.078 93.945,297.328 96.194 C 298.836 97.702,304.031 97.363,306.186 95.616 C 308.596 93.662,307.571 92.502,304.469 93.673 C 300.537 95.158,300.972 93.799,305.204 91.382 C 309.042 89.190,310.781 86.743,309.721 85.027 C 308.886 83.676,304.222 84.111,301.456 85.797 M333.968 85.349 C 327.359 88.228,324.702 96.490,330.215 97.019 C 331.691 97.161,333.481 96.796,334.193 96.209 C 335.212 95.368,335.558 95.356,335.827 96.154 C 336.298 97.553,341.284 97.428,342.481 95.987 C 343.695 94.524,342.779 92.841,341.116 93.479 C 339.869 93.958,339.877 93.836,341.443 88.866 C 342.201 86.460,339.038 87.199,337.267 89.842 C 335.500 92.479,332.314 94.527,331.399 93.613 C 330.252 92.466,333.274 88.708,336.651 87.080 C 342.112 84.448,339.663 82.869,333.968 85.349 M391.608 87.679 C 388.663 95.390,391.715 100.675,396.231 95.685 C 398.629 93.035,396.998 90.775,394.494 93.279 C 393.087 94.686,393.213 92.186,394.731 88.552 C 395.397 86.960,395.739 85.332,395.493 84.934 C 394.471 83.281,392.850 84.426,391.608 87.679 M290.367 86.162 C 291.483 89.069,285.416 95.535,281.565 95.544 C 280.160 95.547,282.527 89.380,285.215 86.032 C 286.317 84.660,289.825 84.748,290.367 86.162 M306.073 87.403 C 306.073 88.276,302.863 90.688,301.703 90.688 C 301.279 90.688,301.788 89.777,302.834 88.664 C 304.800 86.571,306.073 86.076,306.073 87.403 M356.275 89.097 C 356.275 92.028,353.878 94.737,351.285 94.737 L 348.910 94.737 351.417 91.093 C 354.063 87.247,356.275 86.338,356.275 89.097 M1.619 89.879 C 1.619 91.491,2.159 91.498,124.291 91.498 C 246.424 91.498,246.964 91.491,246.964 89.879 C 246.964 88.266,246.424 88.259,124.291 88.259 C 2.159 88.259,1.619 88.266,1.619 89.879 M369.137 101.136 C 368.128 104.030,365.559 106.528,364.820 105.333 C 364.120 104.200,365.589 101.588,367.798 100.042 C 370.120 98.415,370.093 98.393,369.137 101.136 " stroke="none" fill="#000000" fill-rule="evenodd"></path>
  </g>
</svg>
