<svg id="svg" 
  xmlns="http://www.w3.org/2000/svg" 
  xmlns:xlink="http://www.w3.org/1999/xlink" viewBox="0, 0, 400,120.08281573498964">
  <g id="svgg">
    <path id="path0" d="M8.279 12.215 C 8.276 25.298,7.089 35.335,4.338 45.549 C 1.396 56.464,1.395 60.410,4.331 62.068 C 8.169 64.234,12.655 59.818,28.835 37.941 C 32.772 32.618,36.097 28.367,36.224 28.495 C 36.351 28.622,35.686 33.163,34.745 38.586 C 29.509 68.780,45.825 71.646,63.304 43.602 C 74.076 26.319,79.145 3.288,72.168 3.324 C 66.721 3.352,66.253 3.867,66.247 9.827 C 66.227 28.898,47.352 63.038,43.064 51.760 C 41.679 48.116,45.016 28.602,49.411 14.652 C 51.962 6.555,51.781 4.638,48.437 4.310 C 44.983 3.971,44.421 4.598,28.158 26.915 C 20.317 37.674,13.780 46.355,13.632 46.206 C 13.483 46.057,14.096 41.842,14.994 36.839 C 15.893 31.836,16.853 21.874,17.127 14.700 L 17.626 1.656 12.954 1.656 L 8.282 1.656 8.279 12.215 M144.094 17.598 C 141.229 23.178,138.805 27.848,138.706 27.975 C 138.608 28.103,135.962 28.848,132.825 29.632 C 127.634 30.928,127.099 31.260,126.860 33.333 C 126.564 35.903,127.628 36.181,132.456 34.797 C 136.271 33.703,136.278 33.738,133.764 41.023 C 130.679 49.962,130.107 57.717,132.333 60.455 C 136.032 65.008,147.052 62.436,151.058 56.086 C 152.866 53.219,149.834 51.760,146.160 53.730 C 138.229 57.980,136.602 50.200,142.537 36.405 C 144.422 32.022,145.701 31.560,154.298 32.157 C 156.457 32.307,156.609 32.120,156.368 29.617 C 156.114 26.980,156.003 26.909,151.760 26.665 C 149.369 26.527,147.412 26.274,147.412 26.102 C 147.412 25.930,149.107 22.138,151.178 17.675 C 154.673 10.144,154.841 9.484,153.505 8.507 C 150.430 6.258,149.413 7.241,144.094 17.598 M116.856 13.992 C 114.559 16.290,114.477 21.133,116.716 22.331 C 120.940 24.592,124.643 23.002,125.512 18.555 C 126.458 13.721,120.348 10.501,116.856 13.992 M243.478 25.813 C 235.163 28.161,233.942 33.960,239.686 43.820 C 243.764 50.820,244.078 51.777,243.171 54.449 C 242.480 56.486,238.855 57.826,237.233 56.644 C 236.672 56.235,234.852 54.821,233.188 53.500 C 227.903 49.307,223.971 52.844,228.256 57.937 C 235.920 67.045,252.521 63.451,252.576 52.672 C 252.582 51.352,250.911 47.195,248.861 43.435 C 243.317 33.264,244.182 30.798,253.611 29.895 C 258.893 29.389,261.075 27.362,258.260 25.578 C 256.769 24.633,247.111 24.787,243.478 25.813 M79.067 26.552 C 76.588 27.273,76.549 27.373,75.567 35.581 C 74.808 41.935,73.793 45.717,71.242 51.712 C 67.211 61.184,67.620 62.940,73.857 62.940 C 74.259 62.940,76.275 59.306,78.335 54.865 C 83.365 44.026,86.663 39.029,89.207 38.390 C 91.783 37.744,92.889 39.288,91.835 42.061 C 89.836 47.318,94.465 47.653,97.741 42.488 C 106.553 28.593,94.023 24.039,83.376 37.267 L 81.043 40.166 81.482 37.681 C 82.543 31.674,82.949 25.679,82.290 25.748 C 81.896 25.789,80.445 26.150,79.067 26.552 M204.762 26.705 C 202.233 27.517,202.070 27.802,202.070 31.438 C 202.070 37.840,200.474 44.500,197.042 52.413 C 195.253 56.538,193.789 60.146,193.789 60.432 C 193.789 60.923,198.659 62.940,199.846 62.940 C 200.152 62.940,202.788 58.188,205.705 52.381 C 211.200 41.438,214.088 37.726,216.696 38.253 C 218.175 38.552,218.456 39.949,217.723 43.368 C 216.393 49.573,224.164 44.840,226.141 38.242 C 229.396 27.377,218.819 26.163,210.438 36.439 C 208.395 38.944,206.990 40.287,207.316 39.422 C 208.287 36.851,209.007 25.665,208.196 25.757 C 207.788 25.804,206.242 26.231,204.762 26.705 M181.335 27.266 C 167.444 29.987,154.699 46.187,158.171 56.708 C 160.276 63.087,170.094 65.094,178.559 60.876 C 189.018 55.663,190.063 48.869,179.647 53.796 C 173.273 56.812,172.952 56.834,170.158 54.430 L 167.967 52.546 176.598 48.255 C 196.165 38.529,199.510 23.705,181.335 27.266 M111.453 29.193 C 109.403 32.335,105.221 42.756,103.830 48.182 C 100.134 62.609,107.539 68.283,117.310 58.511 C 123.626 52.195,122.719 47.304,116.280 52.957 C 109.015 59.336,108.388 53.030,114.720 37.267 L 117.547 30.228 115.710 28.797 C 113.314 26.932,112.902 26.970,111.453 29.193 M183.818 33.501 C 186.087 36.235,181.630 41.235,173.073 45.555 C 167.091 48.574,167.126 48.573,168.183 45.756 C 171.192 37.730,180.968 30.067,183.818 33.501 M274.120 42.650 C 274.120 43.743,281.527 43.892,335.818 43.892 C 390.108 43.892,397.516 43.743,397.516 42.650 C 397.516 41.557,390.108 41.408,335.818 41.408 C 281.527 41.408,274.120 41.557,274.120 42.650 M268.010 80.715 C 266.970 81.837,265.448 84.970,264.629 87.678 C 263.060 92.858,258.800 96.894,254.902 96.894 C 253.525 96.894,253.300 97.296,253.650 99.130 C 254.530 103.734,251.694 106.848,249.276 103.934 C 247.606 101.923,249.704 97.974,253.094 96.748 C 256.578 95.489,256.713 94.410,253.387 94.410 C 246.518 94.410,241.142 104.522,246.147 108.028 C 249.810 110.593,254.355 108.932,256.516 104.239 C 258.004 101.006,261.682 99.382,260.490 102.484 C 257.886 109.264,256.011 119.269,257.350 119.242 C 259.140 119.205,260.088 117.234,262.158 109.245 C 264.303 100.967,264.570 100.438,266.943 99.722 C 270.411 98.677,271.074 96.522,267.700 97.263 C 264.400 97.988,264.818 94.542,268.277 92.498 C 271.806 90.414,276.605 84.690,276.605 82.565 C 276.605 78.331,271.281 77.185,268.010 80.715 M336.907 80.952 C 332.552 88.361,326.711 105.059,327.549 107.701 C 328.216 109.802,332.168 109.864,334.033 107.802 C 336.318 105.277,335.450 102.977,333.099 105.328 C 329.451 108.975,331.499 100.474,337.097 88.729 C 339.346 84.010,340.981 79.818,340.731 79.412 C 339.871 78.021,338.244 78.677,336.907 80.952 M272.464 83.903 C 272.464 84.501,271.346 86.061,269.979 87.371 C 267.179 90.054,266.980 89.793,268.695 85.688 C 269.853 82.915,272.464 81.679,272.464 83.903 M305.590 84.867 C 304.451 85.528,302.486 86.083,301.222 86.099 C 299.529 86.121,298.710 86.690,298.113 88.261 C 297.667 89.434,295.858 92.136,294.092 94.265 C 288.851 100.586,287.308 104.995,289.553 107.240 C 290.564 108.251,290.669 108.834,289.967 109.536 C 288.492 111.011,288.865 114.141,290.629 115.085 C 295.440 117.660,306.552 112.893,309.317 107.069 C 311.019 103.483,313.043 102.364,313.043 105.010 C 313.043 107.373,314.765 108.489,318.408 108.489 C 322.037 108.489,325.466 106.655,325.466 104.715 C 325.466 103.359,323.345 103.090,322.567 104.348 C 322.286 104.803,321.332 105.176,320.448 105.176 C 319.564 105.176,318.841 104.803,318.841 104.348 C 318.841 103.892,319.344 103.520,319.959 103.520 C 322.680 103.520,328.058 98.517,327.794 96.231 C 327.261 91.610,315.970 94.901,314.299 100.164 C 313.735 101.942,312.036 101.699,309.449 99.471 C 308.610 98.749,306.979 97.772,305.822 97.299 L 303.720 96.440 307.013 94.158 C 314.638 88.874,313.335 80.366,305.590 84.867 M307.246 88.985 C 307.246 90.016,303.933 93.010,300.948 94.677 C 298.661 95.953,301.062 90.805,303.425 89.364 C 306.524 87.474,307.246 87.402,307.246 88.985 M391.097 93.608 C 388.736 94.557,388.631 97.793,390.845 101.376 C 392.948 104.778,391.896 107.171,389.322 104.842 C 387.911 103.564,387.243 103.474,384.997 104.257 C 381.495 105.478,381.428 105.303,383.445 100.185 C 384.395 97.777,384.979 95.307,384.744 94.695 C 384.123 93.077,381.971 93.332,381.414 95.090 C 380.446 98.137,375.983 104.348,374.759 104.348 C 373.072 104.348,373.198 102.193,375.133 97.930 L 376.731 94.410 374.739 94.410 C 370.361 94.410,367.276 108.546,371.521 109.152 C 372.497 109.292,374.420 108.435,375.869 107.215 C 378.382 105.101,378.468 105.087,378.468 106.785 C 378.468 109.242,380.782 109.859,383.706 108.181 C 385.424 107.195,386.445 107.025,387.045 107.625 C 391.724 112.303,398.500 106.088,394.992 100.335 C 393.046 97.143,393.872 95.238,397.203 95.238 C 398.401 95.238,399.172 94.752,399.172 93.996 C 399.172 92.578,394.248 92.341,391.097 93.608 M347.412 94.593 C 341.494 96.692,337.537 101.448,338.046 105.852 C 338.364 108.612,343.643 109.533,346.149 107.265 C 347.465 106.074,347.673 106.068,348.112 107.211 C 348.771 108.928,352.692 108.839,354.654 107.063 C 355.870 105.963,356.169 105.911,355.962 106.836 C 355.178 110.339,359.179 108.399,361.072 104.358 C 363.438 99.307,365.217 97.481,365.217 100.106 C 365.217 102.357,367.359 102.395,368.553 100.164 C 370.960 95.667,367.063 92.564,363.493 96.135 L 361.666 97.961 362.085 95.772 C 362.442 93.904,362.215 93.582,360.548 93.582 C 358.828 93.582,358.592 93.970,358.592 96.799 C 358.592 101.683,356.959 104.732,354.244 104.918 C 351.580 105.100,351.600 105.173,353.228 101.276 C 354.236 98.864,354.278 98.123,353.435 97.589 C 351.828 96.569,351.297 96.749,350.741 98.500 C 350.187 100.243,344.953 105.176,343.656 105.176 C 339.696 105.176,345.533 97.530,350.291 96.485 C 351.668 96.182,352.795 95.405,352.795 94.758 C 352.795 93.398,350.944 93.341,347.412 94.593 M4.969 96.894 C 4.969 98.542,5.521 98.551,115.528 98.551 C 225.535 98.551,226.087 98.542,226.087 96.894 C 226.087 95.246,225.535 95.238,115.528 95.238 C 5.521 95.238,4.969 95.246,4.969 96.894 M323.605 97.922 C 323.417 98.487,322.014 99.679,320.487 100.570 C 317.650 102.227,317.603 101.528,320.337 98.344 C 321.761 96.685,324.119 96.381,323.605 97.922 M294.410 100.207 C 293.703 101.573,292.939 102.692,292.711 102.692 C 292.483 102.692,292.875 101.573,293.582 100.207 C 294.288 98.841,295.053 97.723,295.281 97.723 C 295.508 97.723,295.117 98.841,294.410 100.207 M302.584 100.469 L 304.960 101.484 300.720 102.840 C 298.388 103.585,296.480 104.061,296.480 103.897 C 296.480 103.732,296.913 102.648,297.441 101.488 C 298.515 99.133,299.157 99.005,302.584 100.469 M305.240 106.709 C 302.469 112.067,292.516 114.966,294.482 109.843 C 295.049 108.365,302.699 104.348,304.946 104.348 C 306.345 104.348,306.367 104.528,305.240 106.709 " stroke="none" fill="#000000" fill-rule="evenodd"></path>
  </g>
</svg>
